{"title":"My Afternoons with Margueritte (2010) 720p HDRip x264-pong","uid":14161645,"size":702053252,"categoryP":"video","categoryS":"movies","magnet":"?xt=urn:btih:05932c1fbc0384aaacb6783bf907870426371f10&amp;dn=My+Afternoons+with+Margueritte+%282010%29+720p+HDRip+x264-pong&amp;tr=udp%3A%2F%2Ftracker.leechers-paradise.org%3A6969&amp;tr=udp%3A%2F%2Fzer0day.ch%3A1337&amp;tr=udp%3A%2F%2Fopen.demonii.com%3A1337&amp;tr=udp%3A%2F%2Ftracker.coppersurfer.tk%3A6969&amp;tr=udp%3A%2F%2Fexodus.desync.com%3A6969","seeders":0,"leechers":2,"uploader":"Pongydog","files":1,"time":1459723922,"description":"http://www.imdb.com/title/tt1455151\r\n\r\nA semi-literate and lonely odd-job man bonds with a much older and well-read woman. \r\n\r\nDirector: Jean Becker  \r\n\r\nWriters: Jean Becker (screenplay),  Jean-Loup Dabadie (screenplay)  | 1 more credit » \r\n\r\nStars: Gérard Depardieu,  Gisèle Casadesus,  Maurane  | \r\n\r\n\r\n\r\n--------------------------\r\n\r\nEnglish Hard Subs\r\n\r\n--------------------------\r\nGeneral\r\nComplete name                            : C:Usersuser1VideosMy Afternoons with Margueritte (2010) 720p HDRip x264-pong.mp4\r\nFormat                                   : MPEG-4\r\nFormat profile                           : Base Media\r\nCodec ID                                 : isom\r\nFile size                                : 670 MiB\r\nDuration                                 : 1h 15mn\r\nOverall bit rate                         : 1 232 Kbps\r\nEncoded date                             : UTC 2016-04-03 15:03:32\r\nTagged date                              : UTC 2016-04-03 15:03:32\r\nWriting application                      : Lavf55.23.103\r\n\r\nVideo\r\nID                                       : 1\r\nFormat                                   : AVC\r\nFormat/Info                              : Advanced Video Codec\r\nFormat profile                           :   \r\nFormat settings, CABAC                   : Yes\r\nFormat settings, ReFrames                : 5 frames\r\nCodec ID                                 : avc1\r\nCodec ID/Info                            : Advanced Video Coding\r\nDuration                                 : 1h 15mn\r\nBit rate                                 : 1 100 Kbps\r\nWidth                                    : 1 280 pixels\r\nHeight                                   : 540 pixels\r\nDisplay aspect ratio                     : 2.40:1\r\nFrame rate mode                          : Constant\r\nFrame rate                               : 25.000 fps\r\nColor space                              : YUV\r\nChroma subsampling                       : 4:2:0\r\nBit depth                                : 8 bits\r\nScan type                                : Progressive\r\nBits/(Pixel*Frame)                       : 0.064\r\nStream size                              : 597 MiB (89%)\r\nWriting library                          : x264 core 140 r2345\r\nEncoding settings                        : cabac=1 / ref=5 / deblock=1:0:0 / analyse=0x3:0x133 / me=umh / subme=8 / psy=1 / psy_rd=1.00:0.00 / mixed_ref=0 / me_range=16 / chroma_me=1 / trellis=1 / 8x8dct=1 / cqm=0 / deadzone=21,11 / fast_pskip=1 / chroma_qp_offset=-2 / threads=3 / lookahead_threads=1 / sliced_threads=0 / nr=0 / decimate=1 / interlaced=0 / bluray_compat=0 / constrained_intra=0 / bframes=3 / b_pyramid=0 / b_adapt=2 / b_bias=0 / direct=3 / weightb=1 / open_gop=0 / weightp=2 / keyint=250 / keyint_min=25 / scenecut=40 / intra_refresh=0 / rc_lookahead=50 / rc=2pass / mbtree=1 / bitrate=1100 / ratetol=1.0 / qcomp=0.60 / qpmin=10 / qpmax=69 / qpstep=4 / cplxblur=20.0 / qblur=0.5 / vbv_maxrate=24000 / vbv_bufsize=24000 / nal_hrd=none / filler=0 / ip_ratio=1.40 / aq=1:1.00\r\nEncoded date                             : UTC 2016-04-03 15:03:32\r\nTagged date                              : UTC 2016-04-03 15:03:32\r\n\r\nAudio\r\nID                                       : 2\r\nFormat                                   : AAC\r\nFormat/Info                              : Advanced Audio Codec\r\nFormat profile                           : LC\r\nCodec ID                                 : 40\r\nDuration                                 : 1h 15mn\r\nBit rate mode                            : Constant\r\nBit rate                                 : 128 Kbps\r\nChannel(s)                               : 2 channels\r\nChannel positions                        : Front: L R\r\nSampling rate                            : 48.0 KHz\r\nCompression mode                         : Lossy\r\nStream size                              : 69.5 MiB (10%)\r\nEncoded date                             : UTC 2016-04-03 15:03:32\r\nTagged date                              : UTC 2016-04-03 15:03:32","torrent":{"xt":"urn:btih:05932c1fbc0384aaacb6783bf907870426371f10","amp;dn":"My+Afternoons+with+Margueritte+%282010%29+720p+HDRip+x264-pong","amp;tr":["udp%3A%2F%2Ftracker.leechers-paradise.org%3A6969","udp%3A%2F%2Fzer0day.ch%3A1337","udp%3A%2F%2Fopen.demonii.com%3A1337","udp%3A%2F%2Ftracker.coppersurfer.tk%3A6969","udp%3A%2F%2Fexodus.desync.com%3A6969"],"infoHash":"05932c1fbc0384aaacb6783bf907870426371f10","infoHashBuffer":{"type":"Buffer","data":[5,147,44,31,188,3,132,170,172,182,120,59,249,7,135,4,38,55,31,16]},"announce":[],"urlList":[]}}